<svg width="444" height="218" viewBox="0 0 444 218" fill="none" xmlns="http://www.w3.org/2000/svg">
<mask id="mask0_219_1825" style="mask-type:alpha" maskUnits="userSpaceOnUse" x="0" y="0" width="444" height="218">
<rect width="444" height="218" fill="#D9D9D9"/>
</mask>
<g mask="url(#mask0_219_1825)">
<g clip-path="url(#clip0_219_1825)">
<path d="M209.55 284C251.04 258.487 292.51 232.995 334 207.482C333.029 199.259 330.986 191.14 327.952 183.432C326.981 180.98 325.722 178.363 323.328 177.312C321.656 176.57 319.715 176.735 317.899 176.92C270.877 181.866 225.093 198.167 185.564 224.071C180.136 227.616 174.356 232.109 173.53 238.538C172.725 244.762 176.895 250.45 181.168 255.045C188.495 262.938 196.855 269.904 205.938 275.695L209.55 284.02V284Z" fill="#74A0D6"/>
<path d="M265.759 162.33L141.371 238.642C141.371 238.642 130.576 242.64 123.021 231.594C113.608 217.828 194.4 190.213 194.4 190.213L257.543 153.716L265.759 162.309V162.33Z" fill="#0F162B"/>
<path d="M241.731 149.326L125.497 217.704C125.497 217.704 122.855 219.847 122.215 222.547C120.419 230.069 123.351 242.207 145.396 233.201L266.233 158.373L241.731 149.347V149.326Z" fill="#6881C4"/>
<path d="M241.257 148.461L125.023 216.839C125.023 216.839 122.381 218.982 121.741 221.702C119.945 229.224 122.876 241.362 144.921 232.356L265.759 157.508L241.257 148.482V148.461Z" fill="#1E2E59"/>
<path d="M311.604 188.503C311.604 188.503 207.053 256.283 186.04 265.103C183.501 266.174 171.982 265.803 169.918 260.384C167.854 254.964 226.704 223.866 226.704 223.866L303.368 178.94L311.583 188.482L311.604 188.503Z" fill="#0F162B"/>
<path d="M289.909 175.004L172.767 244.968C172.767 244.968 170.125 245.834 168.969 249.482C167.07 255.458 167.606 266.195 181.952 263.619C185.296 263.021 189.858 260.548 194.812 258.425L307.496 189.162L289.909 175.004Z" fill="#6881C4"/>
<path d="M289.497 174.282L172.355 244.247C172.355 244.247 169.713 245.112 168.557 248.76C166.658 254.736 167.194 265.473 181.54 262.897C184.884 262.299 189.446 259.826 194.4 257.704L307.084 188.44L289.497 174.282Z" fill="#1E2E59"/>
<path d="M310.799 22.3804C310.799 22.3804 286.813 6.36792 271.724 0.824349C256.635 -4.71923 261.857 18.9801 263.715 23.5963C265.572 28.2125 282.313 57.4348 282.313 57.4348V122.041L295.771 133.108L294.843 57.1256L307.104 48.2023C322.874 38.0425 310.799 22.3598 310.799 22.3598V22.3804ZM287.577 47.2956C287.577 47.2956 267.368 22.9986 274.325 17.7642C274.325 17.7642 303.636 30.0672 303.388 32.5402C303.161 34.9926 287.577 47.3162 287.577 47.3162V47.2956Z" fill="#1E2E59"/>
<path d="M261.197 124.782L289.703 142.979L310.799 190.233L237.83 146.4L261.197 124.782Z" fill="#FFC400"/>
<path d="M303.388 134.447L289.703 142.979L261.196 124.782L274.304 116.25L303.388 134.447Z" fill="#F8DC23"/>
<path d="M310.799 190.233L324.464 179.971L303.389 134.447L289.703 142.979L310.799 190.233Z" fill="#FFA800"/>
<path d="M151.485 217.271C151.485 220.073 148.492 222.34 144.818 222.34C141.143 222.34 138.15 220.073 138.15 217.271C138.15 214.468 141.143 212.201 144.818 212.201C148.492 212.201 151.485 214.468 151.485 217.271Z" fill="#FFC400"/>
<path d="M154.479 217.56C154.479 221.784 149.999 225.205 144.467 225.205C138.935 225.205 134.456 221.784 134.456 217.56C134.456 213.335 138.935 209.914 144.467 209.914C149.999 209.914 154.479 213.335 154.479 217.56Z" fill="#6881C4"/>
<path d="M153.756 217.271C153.756 221.043 149.751 224.093 144.818 224.093C139.884 224.093 135.88 221.043 135.88 217.271C135.88 213.5 139.884 210.471 144.818 210.471C149.751 210.471 153.756 213.521 153.756 217.271Z" fill="#0F162B"/>
<path d="M151.486 217.271C151.486 220.073 148.493 222.34 144.819 222.34C141.144 222.34 138.151 220.073 138.151 217.271C138.151 214.468 141.144 212.201 144.819 212.201C148.493 212.201 151.486 214.468 151.486 217.271Z" fill="#FFC400"/>
<path d="M149.236 217.271C149.236 219.126 147.254 220.63 144.819 220.63C142.383 220.63 140.401 219.126 140.401 217.271C140.401 215.416 142.383 213.912 144.819 213.912C147.254 213.912 149.236 215.416 149.236 217.271Z" fill="#FFEC73"/>
<path d="M310.799 22.3598C310.799 22.3598 286.813 6.36792 271.724 0.824349C256.635 -4.71923 261.857 18.9801 263.715 23.5963C265.139 27.1409 275.253 45.0699 279.939 53.2925C279.113 50.2013 277.999 47.1719 276.843 44.1838C274.428 37.8777 272.013 31.5716 269.577 25.2655C268.545 22.5865 267.513 19.825 267.471 16.9605C267.43 14.096 268.627 11.0253 271.125 9.60339C275.047 7.37772 279.815 9.91251 283.84 11.9527C292.944 16.5277 303.491 18.774 311.934 24.1321C311.294 23.0399 310.799 22.401 310.799 22.401V22.3598Z" fill="#415A99"/>
<path d="M271.146 10.7166C272.891 10.7166 274.305 9.42483 274.305 7.83142C274.305 6.23801 272.891 4.94629 271.146 4.94629C269.402 4.94629 267.988 6.23801 267.988 7.83142C267.988 9.42483 269.402 10.7166 271.146 10.7166Z" fill="#6881C4"/>
<path d="M261.196 124.782L289.703 139.105L303.388 134.447L292.84 142.979L310.799 190.233L286.627 144.484L261.196 124.782Z" fill="#FFEA64"/>
<path d="M292.84 143.824C292.84 145.596 291.313 147.018 289.414 147.018C287.515 147.018 285.987 145.596 285.987 143.824C285.987 142.052 287.515 140.63 289.414 140.63C291.313 140.63 292.84 142.052 292.84 143.824Z" fill="#FFFAD9"/>
<path d="M190.065 134.241L87 197.57L208.085 261.62L306.835 202.227L190.065 134.262V134.241ZM205.979 248.699L114.309 195.014L125.827 188.708L215.64 242.969L205.979 248.699ZM155.551 169.399L165.274 164.741L254.901 216.117L245.24 221.846L155.551 169.399Z" fill="#EDC653"/>
<path d="M147.356 175.396L235.27 227.575L225.61 233.325L136.23 181.269L147.356 175.396Z" fill="#BF7B2C"/>
<path d="M188.743 147.637L276.678 199.837L267.017 205.566L179.372 154.273L188.743 147.637Z" fill="#BF7B2C"/>
<path d="M87 217.622V197.57L208.085 261.6V283.403L87 217.622Z" fill="#BF7B2C"/>
<path d="M306.835 201.98V224.258L294.471 231.203V209.42L306.835 201.98Z" fill="#73430B"/>
<path d="M294.471 231.203L276.678 220.342L294.471 209.42V231.203Z" fill="#BF7B2C"/>
<path d="M87 197.57L208.085 264.402V277.035L210.954 263.289L220.449 254.181L208.085 258.653L87 197.57Z" fill="#FFDF80"/>
<path d="M220.449 258.652L300.663 211.707V205.937L220.449 254.18V260.342V258.652Z" fill="#73430B"/>
<path d="M147.356 175.396V187.76L136.23 181.269L147.356 175.396Z" fill="#73430B"/>
<path d="M188.743 147.637V159.754L179.372 154.273L188.743 147.637Z" fill="#73430B"/>
<path d="M198.569 165.215V202.866L148.265 174.921V136.775L198.569 165.215Z" fill="#E08730"/>
<path d="M245.57 139.146L198.568 165.215V202.866L245.57 176.343V139.146Z" fill="#B36C26"/>
<path d="M148.265 136.776L195.72 110.232L245.57 139.146L198.569 165.215L148.265 136.776Z" fill="#FDB56D"/>
<path d="M148.265 136.775L198.569 160.949L245.57 139.145L201.417 167.584L198.569 202.866L196.917 168.058L148.265 136.775Z" fill="#FDCE9F"/>
<path d="M204.101 165.421C204.101 167.915 201.665 169.934 198.652 169.934C195.638 169.934 193.202 167.915 193.202 165.421C193.202 162.928 195.638 160.929 198.652 160.929C201.665 160.929 204.101 162.948 204.101 165.421Z" fill="#FDEDD2"/>
<path d="M193.491 184.958V197.281L175.986 187.286V175.004L193.491 184.958Z" fill="#D9F9FF"/>
<path d="M178.525 176.446V188.729L179.681 189.388V177.106L178.525 176.446Z" fill="#1A1E1F"/>
<path d="M181.519 178.219V190.501L182.674 191.161V178.878L181.519 178.219Z" fill="#1A1E1F"/>
<path d="M183.17 179.084V191.366L184.305 192.026V179.743L183.17 179.084Z" fill="#1A1E1F"/>
<path d="M186.947 181.228V193.51L188.103 194.169V181.887L186.947 181.228Z" fill="#1A1E1F"/>
<path d="M189.59 182.917V195.199L190.746 195.859V183.576L189.59 182.917Z" fill="#1A1E1F"/>
<path d="M168.226 125.606L218.922 156.312L219.83 190.872L231.761 184.133L230.11 149.202L180.198 118.908L168.226 125.606Z" fill="#A3774B"/>
<path d="M248.357 194.21V231.861L198.032 203.916V165.771L248.357 194.21Z" fill="#E08730"/>
<path d="M295.338 168.141L248.357 194.21V231.861L295.338 205.338V168.141Z" fill="#B36C26"/>
<path d="M198.032 165.771L245.508 139.228L295.338 168.141L248.357 194.21L198.032 165.771Z" fill="#FDB56D"/>
<path d="M198.032 165.771L248.357 189.944L295.338 168.14L251.185 196.58L248.357 231.861L246.685 197.054L198.032 165.771Z" fill="#FDCE9F"/>
<path d="M253.869 194.416C253.869 196.909 251.433 198.908 248.419 198.908C245.405 198.908 242.97 196.888 242.97 194.416C242.97 191.943 245.405 189.902 248.419 189.902C251.433 189.902 253.869 191.922 253.869 194.416Z" fill="#FDEDD2"/>
<path d="M243.258 213.953V226.276L225.754 216.281V203.999L243.258 213.953Z" fill="#D9F9FF"/>
<path d="M228.293 205.441V217.724L229.449 218.383V206.101L228.293 205.441Z" fill="#1A1E1F"/>
<path d="M231.286 207.234V219.496L232.442 220.156V207.894L231.286 207.234Z" fill="#1A1E1F"/>
<path d="M232.938 208.079V220.362L234.093 221.021V208.739L232.938 208.079Z" fill="#1A1E1F"/>
<path d="M236.715 210.223V222.505L237.871 223.165V210.882L236.715 210.223Z" fill="#1A1E1F"/>
<path d="M239.357 211.912V224.195L240.513 224.854V212.572L239.357 211.912Z" fill="#1A1E1F"/>
<path d="M218.014 154.601L268.689 185.307L269.618 219.867L281.529 213.128L279.877 178.197L229.965 147.903L218.014 154.601Z" fill="#A3774B"/>
<path d="M151.588 191.428V229.1L101.264 201.135V163.01L151.588 191.428Z" fill="#E08730"/>
<path d="M198.57 165.359L151.589 191.429V229.1L198.57 202.557V165.359Z" fill="#B36C26"/>
<path d="M101.264 163.01L148.74 136.467L198.569 165.359L151.588 191.429L101.264 163.01Z" fill="#FDB56D"/>
<path d="M101.264 163.01L151.588 187.162L198.569 165.359L154.437 193.798L151.588 229.1L149.916 194.272L101.264 163.01Z" fill="#FDCE9F"/>
<path d="M157.1 191.656C157.1 194.149 154.664 196.148 151.651 196.148C148.637 196.148 146.201 194.129 146.201 191.656C146.201 189.183 148.637 187.163 151.651 187.163C154.664 187.163 157.1 189.183 157.1 191.656Z" fill="#FDEDD2"/>
<path d="M146.489 211.192V223.516L129.006 213.5V201.238L146.489 211.192Z" fill="#D9F9FF"/>
<path d="M131.524 202.681V214.942L132.68 215.602V203.34L131.524 202.681Z" fill="#1A1E1F"/>
<path d="M134.518 204.453V216.736L135.674 217.395V205.113L134.518 204.453Z" fill="#1A1E1F"/>
<path d="M136.169 205.318V217.58L137.325 218.26V205.978L136.169 205.318Z" fill="#1A1E1F"/>
<path d="M139.946 207.441V219.724L141.102 220.383V208.101L139.946 207.441Z" fill="#1A1E1F"/>
<path d="M142.589 209.151V221.413L143.745 222.073V209.79L142.589 209.151Z" fill="#1A1E1F"/>
<path d="M121.245 151.84L171.921 182.546L172.85 217.085L184.76 210.367L183.109 175.416L133.217 145.143L121.245 151.84Z" fill="#A3774B"/>
<path d="M201.356 220.423V258.095L151.031 230.15V192.005L201.356 220.423Z" fill="#E08730"/>
<path d="M248.358 194.375L201.356 220.424V258.095L248.358 231.552V194.375Z" fill="#B36C26"/>
<path d="M151.031 192.005L198.507 165.462L248.357 194.375L201.356 220.424L151.031 192.005Z" fill="#FDB56D"/>
<path d="M151.031 192.005L201.356 216.158L248.357 194.375L204.205 222.793L201.356 258.095L199.705 223.267L151.031 192.005Z" fill="#FDCE9F"/>
<path d="M206.868 220.651C206.868 223.144 204.432 225.143 201.418 225.143C198.404 225.143 195.969 223.124 195.969 220.651C195.969 218.178 198.404 216.158 201.418 216.158C204.432 216.158 206.868 218.178 206.868 220.651Z" fill="#FDEDD2"/>
<path d="M171.013 180.835L221.688 211.541L222.617 246.101L234.528 239.362L232.897 204.432L182.985 174.138L171.013 180.835Z" fill="#A3774B"/>
<path d="M198.569 128.676V166.348L148.265 138.383V100.237L198.569 128.676Z" fill="#E08730"/>
<path d="M245.57 102.607L198.568 128.677V166.348L245.57 139.805V102.607Z" fill="#B36C26"/>
<path d="M148.265 100.238L195.72 73.6943L245.57 102.607L198.569 128.677L148.265 100.238Z" fill="#FDB56D"/>
<path d="M148.265 100.237L198.569 124.411L245.57 102.607L201.417 131.046L198.569 166.348L196.917 131.52L148.265 100.237Z" fill="#FDCE9F"/>
<path d="M204.101 128.904C204.101 131.397 201.665 133.396 198.652 133.396C195.638 133.396 193.202 131.377 193.202 128.904C193.202 126.431 195.638 124.411 198.652 124.411C201.665 124.411 204.101 126.431 204.101 128.904Z" fill="#FDEDD2"/>
<path d="M193.491 148.44V160.743L175.986 150.748V138.486L193.491 148.44Z" fill="#D9F9FF"/>
<path d="M178.525 139.908V152.191L179.681 152.85V140.568L178.525 139.908Z" fill="#1A1E1F"/>
<path d="M181.519 141.701V153.984L182.674 154.643V142.361L181.519 141.701Z" fill="#1A1E1F"/>
<path d="M183.17 142.546V154.828L184.305 155.488V143.205L183.17 142.546Z" fill="#1A1E1F"/>
<path d="M186.947 144.689V156.972L188.103 157.631V145.349L186.947 144.689Z" fill="#1A1E1F"/>
<path d="M189.59 146.379V158.661L190.746 159.321V147.038L189.59 146.379Z" fill="#1A1E1F"/>
<path d="M168.226 89.0676L218.922 119.774L219.83 154.333L231.761 147.615L230.11 112.664L180.198 82.3906L168.226 89.0676Z" fill="#A3774B"/>
<path d="M248.357 157.673V195.344L198.032 167.379V129.233L248.357 157.673Z" fill="#E08730"/>
<path d="M295.338 131.604L248.357 157.673V195.344L295.338 168.801V131.604Z" fill="#B36C26"/>
<path d="M198.032 129.234L245.508 102.711L295.338 131.603L248.357 157.673L198.032 129.234Z" fill="#FDB56D"/>
<path d="M198.032 129.233L248.357 153.407L295.338 131.603L251.185 160.042L248.357 195.344L246.685 160.516L198.032 129.233Z" fill="#FDCE9F"/>
<path d="M253.869 157.9C253.869 160.393 251.433 162.392 248.419 162.392C245.405 162.392 242.97 160.373 242.97 157.9C242.97 155.427 245.405 153.407 248.419 153.407C251.433 153.407 253.869 155.427 253.869 157.9Z" fill="#FDEDD2"/>
<path d="M243.258 177.436V189.76L225.754 179.744V167.482L243.258 177.436Z" fill="#D9F9FF"/>
<path d="M228.293 168.925V181.187L229.449 181.846V169.584L228.293 168.925Z" fill="#1A1E1F"/>
<path d="M231.286 170.697V182.98L232.442 183.639V171.357L231.286 170.697Z" fill="#1A1E1F"/>
<path d="M232.938 171.562V183.824L234.093 184.504V172.222L232.938 171.562Z" fill="#1A1E1F"/>
<path d="M236.715 173.686V185.968L237.871 186.627V174.345L236.715 173.686Z" fill="#1A1E1F"/>
<path d="M239.357 175.396V187.657L240.513 188.317V176.034L239.357 175.396Z" fill="#1A1E1F"/>
<path d="M218.014 118.084L268.689 148.77L269.618 183.33L281.529 176.611L279.877 141.66L229.965 111.387L218.014 118.084Z" fill="#A3774B"/>
<path d="M151.588 154.911V192.582L101.264 164.617V126.472L151.588 154.911Z" fill="#E08730"/>
<path d="M198.57 128.842L151.589 154.911V192.583L198.57 166.039V128.842Z" fill="#B36C26"/>
<path d="M101.264 126.472L148.74 99.9287L198.569 128.842L151.588 154.911L101.264 126.472Z" fill="#FDB56D"/>
<path d="M101.264 126.472L151.588 150.645L198.569 128.842L154.437 157.281L151.588 192.582L149.916 157.755L101.264 126.472Z" fill="#FDCE9F"/>
<path d="M157.1 155.117C157.1 157.61 154.664 159.609 151.651 159.609C148.637 159.609 146.201 157.59 146.201 155.117C146.201 152.644 148.637 150.604 151.651 150.604C154.664 150.604 157.1 152.623 157.1 155.117Z" fill="#FDEDD2"/>
<path d="M146.489 174.654V186.978L129.006 176.983V164.7L146.489 174.654Z" fill="#D9F9FF"/>
<path d="M131.524 166.143V178.425L132.68 179.084V166.802L131.524 166.143Z" fill="#1A1E1F"/>
<path d="M134.518 167.936V180.197L135.674 180.857V168.574L134.518 167.936Z" fill="#1A1E1F"/>
<path d="M136.169 168.78V181.063L137.325 181.722V169.44L136.169 168.78Z" fill="#1A1E1F"/>
<path d="M139.946 170.924V183.206L141.102 183.866V171.583L139.946 170.924Z" fill="#1A1E1F"/>
<path d="M142.589 172.613V184.896L143.745 185.555V173.273L142.589 172.613Z" fill="#1A1E1F"/>
<path d="M121.245 115.302L171.921 146.008L172.85 180.568L184.76 173.829L183.109 138.898L133.217 108.604L121.245 115.302Z" fill="#A3774B"/>
<path d="M201.356 183.906V221.578L151.031 193.612V155.467L201.356 183.906Z" fill="#E08730"/>
<path d="M248.358 157.837L201.356 183.906V221.578L248.358 195.035V157.837Z" fill="#B36C26"/>
<path d="M151.031 155.467L198.507 128.924L248.357 157.837L201.356 183.906L151.031 155.467Z" fill="#FDB56D"/>
<path d="M151.031 155.467L201.356 179.64L248.357 157.837L204.205 186.276L201.356 221.578L199.705 186.75L151.031 155.467Z" fill="#FDCE9F"/>
<path d="M206.868 184.133C206.868 186.627 204.432 188.626 201.418 188.626C198.404 188.626 195.969 186.606 195.969 184.133C195.969 181.66 198.404 179.641 201.418 179.641C204.432 179.641 206.868 181.66 206.868 184.133Z" fill="#FDEDD2"/>
<path d="M196.257 203.649V215.973L178.773 205.978V193.716L196.257 203.649Z" fill="#D9F9FF"/>
<path d="M181.292 195.138V207.42L182.448 208.08V195.797L181.292 195.138Z" fill="#1A1E1F"/>
<path d="M184.306 196.931V209.213L185.441 209.873V197.59L184.306 196.931Z" fill="#1A1E1F"/>
<path d="M185.937 197.775V210.058L187.092 210.717V198.435L185.937 197.775Z" fill="#1A1E1F"/>
<path d="M189.734 199.919V212.201L190.87 212.861V200.578L189.734 199.919Z" fill="#1A1E1F"/>
<path d="M192.356 201.608V213.891L193.512 214.55V202.268L192.356 201.608Z" fill="#1A1E1F"/>
<path d="M171.013 144.297L221.688 175.003L222.617 209.563L234.528 202.845L232.897 167.893L182.985 137.62L171.013 144.297Z" fill="#A3774B"/>
<path d="M198.569 92.1383V129.81L148.265 101.865V63.7197L198.569 92.1383Z" fill="#E08730"/>
<path d="M245.57 66.0898L198.568 92.1385V129.81L245.57 103.287V66.0898Z" fill="#B36C26"/>
<path d="M148.265 63.72L195.72 37.1768L245.57 66.0899L198.569 92.1385L148.265 63.72Z" fill="#FDB56D"/>
<path d="M148.265 63.7197L198.569 87.8724L245.57 66.0897L201.417 94.5082L198.569 129.81L196.917 94.9822L148.265 63.7197Z" fill="#FDCE9F"/>
<path d="M204.101 92.3656C204.101 94.8592 201.665 96.8582 198.652 96.8582C195.638 96.8582 193.202 94.8386 193.202 92.3656C193.202 89.8926 195.638 87.873 198.652 87.873C201.665 87.873 204.101 89.8926 204.101 92.3656Z" fill="#FDEDD2"/>
<path d="M193.491 111.902V124.226L175.986 114.231V101.948L193.491 111.902Z" fill="#D9F9FF"/>
<path d="M178.525 103.391V115.673L179.681 116.333V104.05L178.525 103.391Z" fill="#1A1E1F"/>
<path d="M181.519 105.163V117.446L182.674 118.105V105.823L181.519 105.163Z" fill="#1A1E1F"/>
<path d="M183.17 106.028V118.311L184.305 118.97V106.688L183.17 106.028Z" fill="#1A1E1F"/>
<path d="M186.947 108.172V120.434L188.103 121.114V108.831L186.947 108.172Z" fill="#1A1E1F"/>
<path d="M189.59 109.861V122.144L190.746 122.803V110.521L189.59 109.861Z" fill="#1A1E1F"/>
<path d="M168.226 52.5502L218.922 83.2562L219.83 117.816L231.761 111.077L230.11 76.1464L180.198 45.8525L168.226 52.5502Z" fill="#A3774B"/>
<path d="M248.357 121.154V158.805L198.032 130.86V92.7148L248.357 121.154Z" fill="#E08730"/>
<path d="M295.338 95.085L248.357 121.154V158.805L295.338 132.283V95.085Z" fill="#B36C26"/>
<path d="M198.032 92.7151L245.508 66.1719L295.338 95.085L248.357 121.154L198.032 92.7151Z" fill="#FDB56D"/>
<path d="M198.032 92.7148L248.357 116.888L295.338 95.0848L251.185 123.524L248.357 158.805L246.685 123.998L198.032 92.7148Z" fill="#FDCE9F"/>
<path d="M253.869 121.361C253.869 123.854 251.433 125.874 248.419 125.874C245.405 125.874 242.97 123.854 242.97 121.361C242.97 118.867 245.405 116.868 248.419 116.868C251.433 116.868 253.869 118.888 253.869 121.361Z" fill="#FDEDD2"/>
<path d="M243.258 140.897V153.221L225.754 143.226V130.943L243.258 140.897Z" fill="#D9F9FF"/>
<path d="M228.293 132.386V144.668L229.449 145.328V133.045L228.293 132.386Z" fill="#1A1E1F"/>
<path d="M231.286 134.179V146.441L232.442 147.1V134.818L231.286 134.179Z" fill="#1A1E1F"/>
<path d="M232.938 135.023V147.306L234.093 147.965V135.683L232.938 135.023Z" fill="#1A1E1F"/>
<path d="M236.715 137.167V149.449L237.871 150.109V137.826L236.715 137.167Z" fill="#1A1E1F"/>
<path d="M239.357 138.856V151.139L240.513 151.798V139.516L239.357 138.856Z" fill="#1A1E1F"/>
<path d="M218.014 81.5453L268.689 112.251L269.618 146.811L281.529 140.072L279.877 105.142L229.965 74.8477L218.014 81.5453Z" fill="#A3774B"/>
<path d="M151.588 118.373V156.044L101.264 128.079V89.9336L151.588 118.373Z" fill="#E08730"/>
<path d="M198.57 92.3037L151.589 118.373V156.045L198.57 129.501V92.3037Z" fill="#B36C26"/>
<path d="M101.264 89.9337L148.74 63.4111L198.569 92.3037L151.588 118.373L101.264 89.9337Z" fill="#FDB56D"/>
<path d="M101.264 89.9336L151.588 114.107L198.569 92.3035L154.437 120.743L151.588 156.044L149.916 121.217L101.264 89.9336Z" fill="#FDCE9F"/>
<path d="M157.1 118.599C157.1 121.093 154.664 123.092 151.651 123.092C148.637 123.092 146.201 121.072 146.201 118.599C146.201 116.126 148.637 114.086 151.651 114.086C154.664 114.086 157.1 116.106 157.1 118.599Z" fill="#FDEDD2"/>
<path d="M146.489 138.136V150.46L129.006 140.444V128.183L146.489 138.136Z" fill="#D9F9FF"/>
<path d="M131.524 129.625V141.887L132.68 142.546V130.264L131.524 129.625Z" fill="#1A1E1F"/>
<path d="M134.518 131.397V143.68L135.674 144.339V132.057L134.518 131.397Z" fill="#1A1E1F"/>
<path d="M136.169 132.263V144.524L137.325 145.184V132.922L136.169 132.263Z" fill="#1A1E1F"/>
<path d="M139.946 134.386V146.668L141.102 147.328V135.045L139.946 134.386Z" fill="#1A1E1F"/>
<path d="M142.589 136.096V148.358L143.745 149.017V136.735L142.589 136.096Z" fill="#1A1E1F"/>
<path d="M121.245 78.7845L171.921 109.47L172.85 144.03L184.76 137.311L183.109 102.36L133.217 72.0869L121.245 78.7845Z" fill="#A3774B"/>
<path d="M201.356 147.368V185.039L151.031 157.074V118.949L201.356 147.368Z" fill="#E08730"/>
<path d="M248.358 121.319L201.356 147.368V185.04L248.358 158.496V121.319Z" fill="#B36C26"/>
<path d="M151.031 118.949L198.507 92.4062L248.357 121.319L201.356 147.368L151.031 118.949Z" fill="#FDB56D"/>
<path d="M151.031 118.949L201.356 143.102L248.357 121.319L204.205 149.738L201.356 185.039L199.705 150.212L151.031 118.949Z" fill="#FDCE9F"/>
<path d="M206.868 147.595C206.868 150.089 204.432 152.088 201.418 152.088C198.404 152.088 195.969 150.068 195.969 147.595C195.969 145.122 198.404 143.103 201.418 143.103C204.432 143.103 206.868 145.122 206.868 147.595Z" fill="#FDEDD2"/>
<path d="M196.257 167.131V179.455L178.773 169.44V157.178L196.257 167.131Z" fill="#D9F9FF"/>
<path d="M181.292 158.62V170.903L182.448 171.562V159.28L181.292 158.62Z" fill="#1A1E1F"/>
<path d="M184.306 160.393V172.675L185.441 173.334V161.052L184.306 160.393Z" fill="#1A1E1F"/>
<path d="M185.937 161.258V173.54L187.092 174.2V161.917L185.937 161.258Z" fill="#1A1E1F"/>
<path d="M189.734 163.401V175.663L190.87 176.323V164.04L189.734 163.401Z" fill="#1A1E1F"/>
<path d="M192.356 165.091V177.373L193.512 178.033V165.75L192.356 165.091Z" fill="#1A1E1F"/>
<path d="M171.013 107.78L221.688 138.486L222.617 173.045L234.528 166.307L232.897 131.355L182.985 101.082L171.013 107.78Z" fill="#A3774B"/>
</g>
</g>
<defs>
<clipPath id="clip0_219_1825">
<rect width="247" height="284" fill="white" transform="translate(87)"/>
</clipPath>
</defs>
</svg>
