<svg width="446" height="232" viewBox="0 0 446 232" fill="none" xmlns="http://www.w3.org/2000/svg">
<mask id="mask0_219_1601" style="mask-type:alpha" maskUnits="userSpaceOnUse" x="0" y="0" width="446" height="232">
<rect width="446" height="232" rx="8" fill="#C4C4C4"/>
</mask>
<g mask="url(#mask0_219_1601)">
<g clip-path="url(#clip0_219_1601)">
<path d="M182.917 275.146L263.761 279L392 205.681L300.038 160.824L182.917 275.146Z" fill="#74A0D6"/>
<path d="M320.836 175.524L328.019 180.654V190.115L182.917 275.146V259.251L321.078 180.654L320.836 175.524Z" fill="#0C6082"/>
<path d="M320.836 175.524L328.019 180.654L182.917 262.889V259.251L321.078 180.654L320.836 175.524Z" fill="#139BD2"/>
<path d="M290.4 143.337L283.904 201.798L237.121 186.476L238.637 155.088L290.4 143.337Z" fill="#072C3B"/>
<path d="M283.904 141.72L281.107 143.337L281.507 200.603L283.904 201.718V141.72Z" fill="#C4B890"/>
<path d="M64.3506 105.695V192.296L182.917 259.251V154.818L64.3506 105.695Z" fill="#FDEDDE"/>
<path d="M135.789 212.094L145.111 237.901L177.759 256.338L174.118 223.152L135.789 212.094Z" fill="#C0BCB0"/>
<path d="M173.533 224.557L139.159 204.688V222.778L173.533 242.646V224.557Z" fill="#968C6E"/>
<path d="M170.643 224.408L142.046 207.875V222.929L170.643 239.456V224.408Z" fill="#FDEDDE"/>
<path d="M169.236 224.334L143.455 209.432V223L169.236 237.9V224.334Z" fill="#07384D"/>
<path d="M157.061 217.142L156.522 231.14L153.564 229.429L153.739 215.222L157.061 217.142Z" fill="#FDEDDE"/>
<path d="M317.082 233.415L256.952 267.992L234.47 244.934L225.394 239.047V189.486L241.173 180.499L283.904 201.798L292.836 206.918L317.082 233.415Z" fill="#87A5B3"/>
<path d="M283.904 201.798L225.394 235.087V186.476L241.173 180.499L283.904 201.798Z" fill="#47575E"/>
<path d="M225.394 229.964L240.16 238.274L262.745 264.661L268.215 261.516L246.098 234.172L225.394 223.152V229.964Z" fill="#FDFCFA"/>
<path d="M235.173 183.915L286.817 209.925L311.063 236.876L305.154 240.275L282.004 214.333L229.248 187.482L235.173 183.915Z" fill="#FDFCFA"/>
<path d="M223.603 225.16L291.319 186.589V130.274L251.668 153.02L210.43 177.664L223.603 225.16Z" fill="#0C6082"/>
<path d="M255.494 98.4198L182.917 154.819V259.251L225.394 235.088V175.522L283.904 141.72V201.799L321.078 180.655L322.046 91.7949L255.494 98.4198Z" fill="#C0BCB0"/>
<path d="M186.626 169.021L182.917 259.251L181.313 170.578L186.626 169.021Z" fill="#FDFCFA"/>
<path d="M322.045 91.7949L321.997 96.1772L254.649 117.734L180.117 179.221L64.3506 112.06V108.312L181.314 170.579L253.168 112.375L322.045 91.7949Z" fill="#968C6E"/>
<path d="M221.143 237.504H221.146L225.394 235.081V175.521L283.904 141.72V201.718L289.388 198.592V134.157L221.101 172.566L221.143 237.504Z" fill="#968C6E"/>
<path d="M206.32 14L135.401 39.8359L252.216 108.608L323.971 82.7722L206.32 14Z" fill="#139BD2"/>
<path d="M61.7188 98.4194L135.402 39.8359L252.217 108.608L179.369 166.463L61.7188 98.4194Z" fill="#63CDF2"/>
<path d="M61.7188 106.787V98.4189L179.369 166.463V174.831L61.7188 106.787Z" fill="#139BD2"/>
<path d="M323.971 91.1406V82.7725L252.216 108.608L179.368 166.464V174.832L254.4 114.792L323.971 91.1406Z" fill="#0C6082"/>
<path d="M64.3505 187.984L57.877 192.296V203.941L182.917 275.146V262.888V259.251L64.3505 192.296V187.984Z" fill="#139BD2"/>
<path d="M61.7188 98.4196L179.311 164.766L251.668 107.042L323.971 82.7725L252.217 108.608L181.507 164.766L179.369 174.832L176.834 165.304L61.7188 98.4196Z" fill="#BAEDFF"/>
<path d="M181.313 165.664C181.313 166.644 180.517 167.44 179.536 167.44C178.555 167.44 177.759 166.644 177.759 165.664C177.759 164.685 178.555 163.889 179.536 163.889C180.517 163.889 181.313 164.685 181.313 165.664Z" fill="white"/>
<path d="M225.394 221.126L283.975 187.421V184.924L225.394 218.567V221.126Z" fill="#07384D"/>
<path d="M177.111 185.703L142.74 165.835V183.925L177.111 203.793V185.703Z" fill="#968C6E"/>
<path d="M174.224 185.555L145.627 169.021V184.076L174.224 200.603V185.555Z" fill="#FDEDDE"/>
<path d="M172.818 185.481L147.036 170.578V184.147L172.818 199.047V185.481Z" fill="#07384D"/>
<path d="M160.642 178.289L160.103 192.286L157.146 190.575L157.32 176.368L160.642 178.289Z" fill="#FDEDDE"/>
<path d="M140.085 164.321L105.714 144.449V162.542L140.085 182.407V164.321Z" fill="#968C6E"/>
<path d="M137.198 164.17L108.601 147.64V162.691L137.198 179.221V164.17Z" fill="#FDEDDE"/>
<path d="M135.788 164.095L110.01 149.192V162.764L135.788 177.664V164.095Z" fill="#07384D"/>
<path d="M123.616 156.903L123.077 170.9L120.119 169.192L120.293 154.982L123.616 156.903Z" fill="#FDEDDE"/>
<path d="M103.141 142.941L68.7666 123.069V141.162L103.141 161.027V142.941Z" fill="#968C6E"/>
<path d="M100.254 142.79L71.6533 126.26V141.311L100.254 157.841V142.79Z" fill="#FDEDDE"/>
<path d="M98.8439 142.718L73.0625 127.815V141.384L98.8439 156.284V142.718Z" fill="#07384D"/>
<path d="M86.6683 135.524L86.1297 149.524L83.1719 147.813L83.3493 133.606L86.6683 135.524Z" fill="#FDEDDE"/>
<path d="M64.3505 187.984L57.877 192.296L182.917 262.888V259.251L64.3505 192.296V187.984Z" fill="#BAEDFF"/>
<path d="M140.085 203.793L174.117 223.152L156.967 238.387L123.635 219.653L140.085 203.793Z" fill="#63CDF2"/>
<path d="M174.117 223.153L156.967 238.387L123.635 219.653L156.345 235.088L174.117 223.153Z" fill="#BAEDFF"/>
<path d="M65.1572 172.145L74.4789 197.951L107.124 216.386L103.483 183.203L65.1572 172.145Z" fill="#C0BCB0"/>
<path d="M102.899 184.608L68.5244 164.736V182.829L102.899 202.694V184.608Z" fill="#968C6E"/>
<path d="M100.012 184.457L71.4111 167.927V182.978L100.012 199.508V184.457Z" fill="#FDEDDE"/>
<path d="M98.6017 184.385L72.8203 169.482V183.051L98.6017 197.951V184.385Z" fill="#07384D"/>
<path d="M86.4258 177.19L85.8872 191.187L82.9326 189.48L83.1068 175.27L86.4258 177.19Z" fill="#FDEDDE"/>
<path d="M69.45 163.841L103.482 183.203L86.3323 198.435L53 179.704L69.45 163.841Z" fill="#63CDF2"/>
<path d="M103.482 183.203L86.3323 198.435L53 179.704L85.713 195.135L103.482 183.203Z" fill="#BAEDFF"/>
<path d="M169.292 163.428L241.172 102.105L315.43 77.7773L312.65 76.1533L239.334 101.023L166.702 161.723L169.292 163.428Z" fill="#139BD2"/>
<path d="M169.464 161.021L239.596 101.187L313.853 76.859L312.65 76.1533L238.618 100.61L167.87 160.093L169.464 161.021Z" fill="#BAEDFF"/>
<path d="M142.556 147.64L214.436 86.3139L288.694 61.9892L285.916 60.3652L212.598 85.2312L139.966 145.932L142.556 147.64Z" fill="#139BD2"/>
<path d="M142.727 145.229L212.862 85.3956L287.12 61.0709L285.917 60.3652L211.882 84.8188L141.134 144.305L142.727 145.229Z" fill="#BAEDFF"/>
<path d="M121.071 135.433L192.951 74.1111L267.208 49.7832L264.431 48.1592L191.112 73.0284L118.48 133.729L121.071 135.433Z" fill="#139BD2"/>
<path d="M121.242 133.023L191.377 73.1927L265.635 48.8648L264.431 48.1592L190.397 72.616L119.648 132.098L121.242 133.023Z" fill="#BAEDFF"/>
<path d="M97.6799 121.123L169.56 59.7973L243.818 35.4726L241.04 33.8486L167.722 58.7146L95.0898 119.415L97.6799 121.123Z" fill="#139BD2"/>
<path d="M97.8512 118.713L167.986 58.879L242.244 34.5543L241.041 33.8486L167.009 58.3022L96.2578 117.788L97.8512 118.713Z" fill="#BAEDFF"/>
<path d="M75.6526 108.608L147.533 47.2827L221.79 22.958L219.013 21.334L145.694 46.2L73.0625 106.9L75.6526 108.608Z" fill="#139BD2"/>
<path d="M75.8239 106.198L145.959 46.3643L220.217 22.0397L219.013 21.334L144.979 45.7875L74.2305 105.273L75.8239 106.198Z" fill="#BAEDFF"/>
<path d="M263.916 182.472L248.979 190.131V197.787L263.796 189.167L263.916 182.472Z" fill="#072C3B"/>
<path d="M263.915 182.472L249.987 189.873V196.047L263.802 188.407L263.915 182.472Z" fill="#63CDF2"/>
<path d="M118.481 68.0693L214.126 125.18L188.761 146.818L93.2539 89.2781L118.481 68.0693Z" fill="#FDEDDE"/>
<path d="M118.481 73.4404L207.902 126.137L189.097 142.18L100.254 88.9426L118.481 73.4404Z" fill="#07384D"/>
<path d="M129.331 79.834L110.011 96.4446L114.21 98.4198L135.402 80.7555L129.331 79.834Z" fill="#FDEDDE"/>
<path d="M144.804 89.126L125.483 105.737L129.683 107.712L150.875 90.0475L144.804 89.126Z" fill="#FDEDDE"/>
<path d="M162.061 98.4189L142.74 115.03L146.943 117.002L168.131 99.3405L162.061 98.4189Z" fill="#FDEDDE"/>
<path d="M178.214 108.608L158.894 125.219L163.096 127.191L184.285 109.53L178.214 108.608Z" fill="#FDEDDE"/>
<path d="M194.844 117.897L175.521 134.511L178.885 137.453L200.912 118.822L194.844 117.897Z" fill="#FDEDDE"/>
<path d="M211.481 121.555V94.3952L279.768 56.6982V83.1431L211.481 121.555Z" fill="#E88F10"/>
<path d="M214.704 116.819V95.5777L276.414 61.3027V81.9863L214.704 116.819Z" fill="#C0BCB0"/>
<path d="M213.733 118.713L214.704 131.837C214.704 131.837 216.175 132.685 219.197 130.274V116.818L213.733 118.716V118.713Z" fill="#E88F10"/>
<path d="M272.289 84.9054L273.26 98.0296C273.26 98.0296 274.731 98.877 277.753 96.4668V83.0107L272.289 84.9086V84.9054Z" fill="#E88F10"/>
<path d="M279.769 56.6983L276.414 54.8906L208.988 91.7949L211.482 94.3953L279.769 56.6983Z" fill="#FDD28B"/>
<path d="M208.988 91.7949V117.898L211.482 121.556V94.3953L208.988 91.7949Z" fill="#FDB237"/>
<path d="M208.988 91.7948L212.459 93.8571L279.769 56.6982L212.32 95.146L211.482 114.956L210.43 94.3952L208.988 91.7948Z" fill="#FDF2DF"/>
<path d="M213.733 94.3727C213.733 95.0784 212.949 95.6487 211.985 95.6487C211.02 95.6487 210.236 95.0784 210.236 94.3727C210.236 93.667 211.02 93.0967 211.985 93.0967C212.949 93.0967 213.733 93.667 213.733 94.3727Z" fill="white"/>
</g>
</g>
<defs>
<clipPath id="clip0_219_1601">
<rect width="339" height="265" fill="white" transform="translate(53 14)"/>
</clipPath>
</defs>
</svg>
