<svg width="299" height="50" viewBox="0 0 299 50" fill="none" xmlns="http://www.w3.org/2000/svg">
<g clip-path="url(#clip0_216_1058)">
<path fill-rule="evenodd" clip-rule="evenodd" d="M79.9011 0.188965L54.4055 49.9202H30.4581L41.128 29.3094H40.6493C31.8468 40.711 18.7133 48.2168 0 49.9202V29.5947C0 29.5947 11.9713 28.8892 19.0089 21.5064H0V0.189358H21.364V17.7223L21.8435 17.7203L30.5736 0.189358H46.7307V17.6111L47.2102 17.6104L56.2676 0.188965H79.9011Z" fill="#146EF5"/>
<path d="M218.929 44.4309H225.809V5.02393H218.929V44.4309Z" fill="white"/>
<path fill-rule="evenodd" clip-rule="evenodd" d="M180.998 44.0287C182.494 44.6491 184.014 44.959 185.56 44.959C188.114 44.959 190.399 44.3389 192.415 43.0983C194.432 41.8577 195.994 40.1474 197.103 37.9682C198.212 35.7717 198.767 33.2822 198.767 30.4991C198.767 27.7159 198.195 25.2264 197.053 23.0301C195.91 20.8339 194.322 19.1322 192.289 17.9251C190.256 16.7012 187.946 16.0977 185.358 16.1144C183.712 16.1144 182.132 16.433 180.62 17.0701C179.108 17.7071 177.848 18.6125 176.84 19.786C176.762 19.8754 176.686 19.9656 176.613 20.0568V5.04932H169.707V44.4311H176.562L176.549 40.7521C176.726 40.969 176.915 41.1809 177.117 41.388C178.209 42.5115 179.503 43.3916 180.998 44.0287ZM188.055 37.6662C186.929 38.3535 185.644 38.6974 184.199 38.6974C182.771 38.6974 181.46 38.3452 180.267 37.6411C179.074 36.9201 178.125 35.9394 177.419 34.6988C176.73 33.4582 176.386 32.0499 176.386 30.474C176.369 28.898 176.705 27.4897 177.394 26.2491C178.1 24.9917 179.049 24.0193 180.242 23.3319C181.435 22.6278 182.754 22.2841 184.199 22.3008C185.644 22.2841 186.929 22.6194 188.055 23.3067C189.198 23.9774 190.071 24.9414 190.676 26.1988C191.298 27.4394 191.609 28.8646 191.609 30.474C191.609 32.0833 191.298 33.5085 190.676 34.7491C190.071 35.9897 189.198 36.9621 188.055 37.6662Z" fill="white"/>
<path d="M89.8691 7.41309H97.7326L104.767 33.0456L112.25 7.41309H118.803L126.918 32.5313L133.673 7.41309H140.881L130.245 44.431H123.465L115.213 19.8925L107.637 44.431H100.782L89.8691 7.41309Z" fill="white"/>
<path fill-rule="evenodd" clip-rule="evenodd" d="M152.493 45.0846C149.755 45.1012 147.285 44.4976 145.084 43.2738C142.899 42.0332 141.177 40.3147 139.917 38.1186C138.674 35.9222 138.052 33.4158 138.052 30.5992C138.052 27.8666 138.69 25.3936 139.967 23.1806C141.244 20.9676 142.975 19.2408 145.159 18.0001C147.343 16.7595 149.78 16.1392 152.468 16.1392C155.493 16.1392 158.139 16.8098 160.407 18.151C162.692 19.4922 164.398 21.3951 165.523 23.8596C166.666 26.3073 167.078 29.1155 166.759 32.2841H145.17C145.23 33.5465 145.546 34.6951 146.117 35.7294C146.755 36.8694 147.646 37.7581 148.788 38.3951C149.931 39.0321 151.208 39.3506 152.619 39.3506C153.695 39.3341 154.694 39.1495 155.619 38.7976C156.543 38.4288 157.324 37.9341 157.963 37.3139C158.618 36.6934 159.08 35.9893 159.349 35.2015H166.557C166.12 37.1294 165.246 38.8479 163.936 40.3567C162.625 41.8487 160.978 43.0139 158.996 43.8523C157.013 44.6904 154.846 45.1012 152.493 45.0846ZM146.142 25.3685C145.739 26.0691 145.461 26.8236 145.305 27.6318H159.616C159.512 26.6107 159.196 25.6802 158.668 24.8404C158.063 23.8512 157.24 23.0884 156.198 22.5519C155.156 21.9987 153.98 21.722 152.67 21.722C151.275 21.722 150.007 22.0406 148.864 22.6776C147.722 23.3147 146.814 24.2117 146.142 25.3685Z" fill="white"/>
<path d="M203.832 16.718C203.832 14.4714 204.345 12.4763 205.37 10.7328C206.395 8.9724 207.831 7.60602 209.68 6.63364C211.544 5.64447 213.721 5.13315 216.207 5.09961V11.2105C215.048 11.2273 214.057 11.4704 213.233 11.9399C212.427 12.3925 211.805 13.0547 211.368 13.9265C210.966 14.7291 210.749 15.6596 210.717 16.718H216.056V22.5272H210.713V44.4311H203.832V22.5272H199.396V16.718H203.832Z" fill="white"/>
<path fill-rule="evenodd" clip-rule="evenodd" d="M243.301 45.0346C240.495 45.0346 237.983 44.4224 235.765 43.1987C233.564 41.958 231.833 40.2478 230.573 38.0685C229.33 35.8721 228.708 33.3826 228.708 30.5995C228.708 27.7998 229.33 25.3017 230.573 23.1054C231.833 20.8924 233.564 19.1739 235.765 17.9501C237.983 16.7262 240.495 16.1143 243.301 16.1143C246.124 16.1143 248.644 16.7262 250.862 17.9501C253.097 19.1739 254.836 20.884 256.079 23.0803C257.322 25.2765 257.952 27.7829 257.969 30.5995C257.952 33.3826 257.322 35.8721 256.079 38.0685C254.853 40.2478 253.122 41.958 250.887 43.1987C248.652 44.4224 246.124 45.0346 243.301 45.0346ZM243.301 38.7224C244.78 38.7224 246.09 38.3871 247.233 37.7163C248.375 37.029 249.257 36.0732 249.879 34.8495C250.501 33.6089 250.812 32.1923 250.812 30.5995C250.812 28.9901 250.501 27.565 249.879 26.3243C249.257 25.0837 248.375 24.1281 247.233 23.4575C246.09 22.7701 244.78 22.4264 243.301 22.4264C241.839 22.4264 240.537 22.7701 239.394 23.4575C238.269 24.1281 237.395 25.0837 236.773 26.3243C236.151 27.565 235.849 28.9901 235.866 30.5995C235.866 32.1923 236.177 33.6089 236.798 34.8495C237.437 36.0732 238.311 37.029 239.42 37.7163C240.545 38.3871 241.839 38.7224 243.301 38.7224Z" fill="white"/>
<path d="M265.404 16.7178H257.742L266.034 44.4309H272.738L278.192 26.7305L284.08 44.4309H290.683L299 16.7178H292.07L287.353 33.9674L282.14 16.7178H275.435L270.246 34.3475L265.404 16.7178Z" fill="white"/>
</g>
<defs>
<clipPath id="clip0_216_1058">
<rect width="299" height="50" fill="white"/>
</clipPath>
</defs>
</svg>
