<svg width="367" height="490" viewBox="0 0 367 490" fill="none" xmlns="http://www.w3.org/2000/svg">
<mask id="mask0_219_1935" style="mask-type:alpha" maskUnits="userSpaceOnUse" x="0" y="0" width="367" height="490">
<rect width="367" height="490" rx="8" fill="#9E9E9E"/>
</mask>
<g mask="url(#mask0_219_1935)">
<g clip-path="url(#clip0_219_1935)">
<path d="M279.658 193.104V299L184 246.052V139.254L279.658 193.104Z" fill="#DB9310"/>
<path d="M266.774 200.108V277.485L196.884 238.796V160.769L266.774 200.108Z" fill="#7A5209"/>
<path d="M369 143.741L279.657 193.104V299L369 248.746V143.741Z" fill="#B5700C"/>
<path d="M356.96 164.658L291.688 200.715V278.083L356.96 241.365V164.658Z" fill="#61430D"/>
<path d="M184 139.254L274.238 89L369 143.741L279.658 193.104L184 139.254Z" fill="#FDC974"/>
<path d="M206.899 139.704L274.797 101.886L346.09 143.081L278.877 180.218L206.899 139.704Z" fill="#C48A2B"/>
<path d="M184 139.254L279.658 185.02L369 143.741L285.066 197.591L279.658 291.818L276.495 198.483L184 139.254Z" fill="#FDC872"/>
<path d="M279.205 202.079C284.934 202.079 289.579 198.262 289.579 193.554C289.579 188.847 284.934 185.03 279.205 185.03C273.475 185.03 268.83 188.847 268.83 193.554C268.83 198.262 273.475 202.079 279.205 202.079Z" fill="#FDE1B4"/>
<path d="M262.525 246.136V269.475L229.272 250.529V227.295L262.525 246.136Z" fill="#D9F9FF"/>
<path d="M234.08 230.01V253.265L236.273 254.513V231.257L234.08 230.01Z" fill="#1A1E1F"/>
<path d="M239.773 233.386V256.641L241.977 257.889V234.633L239.773 233.386Z" fill="#1A1E1F"/>
<path d="M242.904 235.012V258.257L245.097 259.515V236.249L242.904 235.012Z" fill="#1A1E1F"/>
<path d="M250.095 239.059V262.314L252.288 263.562V240.306L250.095 239.059Z" fill="#1A1E1F"/>
<path d="M255.124 242.267V265.511L257.317 266.77V243.504L255.124 242.267Z" fill="#1A1E1F"/>
<path d="M304.36 227.294V263.561L312.204 259.514V221.37L304.36 227.294Z" fill="#1A1E1F"/>
<path d="M308.282 210.445L298.762 230.01L317.233 221.37L308.282 210.445Z" fill="#1A1E1F"/>
<path d="M327.312 215.037V251.315L335.157 247.257V209.124L327.312 215.037Z" fill="#1A1E1F"/>
<path d="M331.234 198.199L321.714 217.764L340.196 209.124L331.234 198.199Z" fill="#1A1E1F"/>
</g>
<g clip-path="url(#clip1_219_1935)">
<path d="M121.417 240.527V356L18 298.256V181.811L121.417 240.527Z" fill="#F8A612"/>
<path d="M218 186.689L121.417 240.528V356L218 301.189V186.689Z" fill="#E88F10"/>
<path d="M18 181.811L115.553 127L218 186.689L121.417 240.527L18 181.811Z" fill="#FDB237"/>
<path d="M18 181.811L121.417 231.711L218 186.689L127.266 245.406L121.417 348.172L117.992 246.394L18 181.811Z" fill="#FDC872"/>
<path d="M132.145 241.013C132.145 246.143 127.125 250.316 120.932 250.316C114.74 250.316 109.72 246.159 109.72 241.013C109.72 235.868 114.74 231.711 120.932 231.711C127.125 231.711 132.145 235.868 132.145 241.013Z" fill="#FDE1B4"/>
<path d="M109.704 310.978V336.422L73.751 315.762V290.428L109.704 310.978Z" fill="#D9F9FF"/>
<path d="M78.959 293.393V318.759L81.3204 320.123V294.757L78.959 293.393Z" fill="#1A1E1F"/>
<path d="M85.1201 297.079V322.429L87.4815 323.794V298.444L85.1201 297.079Z" fill="#1A1E1F"/>
<path d="M88.498 298.852V324.202L90.8594 325.567V300.201L88.498 298.852Z" fill="#1A1E1F"/>
<path d="M96.2705 303.26V328.626L98.6476 329.975V304.625L96.2705 303.26Z" fill="#1A1E1F"/>
<path d="M101.697 306.758V332.108L104.074 333.473V308.107L101.697 306.758Z" fill="#1A1E1F"/>
</g>
<g clip-path="url(#clip2_219_1935)">
<path d="M261.25 399.44V508L117 427.42V317.488L261.25 399.44Z" fill="#E08730"/>
<path d="M396 324.322L261.25 399.439V508L396 431.512V324.322Z" fill="#B36C26"/>
<path d="M117 317.488L253.095 241L396 324.323L261.25 399.439L117 317.488Z" fill="#FDB56D"/>
<path d="M117 317.488L261.25 387.141L396 324.323L269.426 406.274L261.25 508L256.489 407.624L117 317.488Z" fill="#FDCE9F"/>
<path d="M277.074 400.081C277.074 407.247 270.065 413.065 261.425 413.065C252.786 413.065 245.777 407.247 245.777 400.081C245.777 392.914 252.786 387.097 261.425 387.097C270.065 387.097 277.074 392.914 277.074 400.081Z" fill="#FDEDD2"/>
<path d="M246.659 456.374V491.875L196.497 463.054V427.686L246.659 456.374Z" fill="#D9F9FF"/>
<path d="M203.748 431.844V467.234L207.054 469.114V433.724L203.748 431.844Z" fill="#1A1E1F"/>
<path d="M212.344 436.976V472.366L215.65 474.268V438.856L212.344 436.976Z" fill="#1A1E1F"/>
<path d="M217.06 439.431V474.821L220.366 476.724V441.333L217.06 439.431Z" fill="#1A1E1F"/>
<path d="M227.903 445.602V480.992L231.209 482.894V447.504L227.903 445.602Z" fill="#1A1E1F"/>
<path d="M235.485 450.49V485.859L238.791 487.761V452.37L235.485 450.49Z" fill="#1A1E1F"/>
<path d="M174.259 285.304L319.566 373.803L322.233 473.383L356.372 454.007L351.678 353.299L208.575 266.017L174.259 285.304Z" fill="#A3774B"/>
</g>
</g>
<defs>
<clipPath id="clip0_219_1935">
<rect width="185" height="210" fill="white" transform="translate(184 89)"/>
</clipPath>
<clipPath id="clip1_219_1935">
<rect width="200" height="229" fill="white" transform="translate(18 127)"/>
</clipPath>
<clipPath id="clip2_219_1935">
<rect width="279" height="267" fill="white" transform="translate(117 241)"/>
</clipPath>
</defs>
</svg>
