<svg width="394" height="490" viewBox="0 0 394 490" fill="none" xmlns="http://www.w3.org/2000/svg">
<mask id="mask0_219_1884" style="mask-type:alpha" maskUnits="userSpaceOnUse" x="0" y="0" width="394" height="490">
<rect width="394" height="490" rx="8" fill="#ADADAD"/>
</mask>
<g mask="url(#mask0_219_1884)">
<g clip-path="url(#clip0_219_1884)">
<path d="M405.811 261.677C416.703 266.872 426.157 275.056 432.863 285.089C434.289 287.223 435.637 289.59 435.598 292.158C435.539 296.004 432.462 299.052 429.539 301.549C419.276 310.33 408.189 318.145 396.468 324.851C394.53 325.96 392.282 327.601 392.619 329.806C392.956 332.011 397.505 331.044 396.105 329.306C370.077 334.423 348.824 352.388 326.845 367.252C304.134 382.616 279.525 395.159 253.756 404.517C247.594 406.755 241.263 408.83 234.719 409.109C230.941 409.271 227.131 408.837 223.386 409.381C215.014 410.601 208.217 416.463 201.271 421.295C185.558 432.229 166.677 438.773 147.536 438.98C109.093 439.402 75.1987 415.387 44.356 392.416C40.3647 389.439 36.0169 385.865 35.5698 380.904C35.2134 376.935 37.5331 373.212 40.2221 370.268C47.5829 362.2 58.015 357.673 68.4146 354.359C84.5746 349.216 101.389 346.48 117.763 342.063C164.325 329.507 206.047 303.832 249.084 282.06C292.121 260.289 339.111 241.845 387.189 245.638L405.818 261.664L405.811 261.677Z" fill="#74A0D6"/>
<path d="M359.055 300.07C361.971 283.623 374.91 270.289 387.96 270.289C389.988 270.289 391.88 270.646 393.649 271.249L406.9 277.819L412.751 282.281L406.874 293.306C406.887 295.485 406.725 297.742 406.31 300.07C404.308 311.367 397.576 321.193 389.334 326.238L384.545 335.227L373.2 329.338C370.524 328.69 368.139 327.419 366.092 325.648L366.072 325.635C360.092 320.428 357.131 310.939 359.061 300.07H359.055Z" fill="#11151A"/>
<path d="M368.839 306.01C365.813 322.457 374.34 335.791 387.896 335.791C401.451 335.791 414.889 322.457 417.915 306.01C420.941 289.563 412.414 276.229 398.859 276.229C385.304 276.229 371.865 289.563 368.839 306.01Z" fill="#647B96"/>
<path d="M370.686 306.01C367.77 322.457 375.986 335.791 389.036 335.791C402.086 335.791 415.026 322.457 417.941 306.01C420.857 289.563 412.641 276.229 399.591 276.229C386.542 276.229 373.602 289.563 370.686 306.01Z" fill="#11151A"/>
<path d="M376.324 306.011C374.101 318.534 380.361 328.684 390.294 328.684C400.227 328.684 410.082 318.534 412.305 306.011C414.527 293.487 408.268 283.338 398.335 283.338C388.402 283.338 378.546 293.487 376.324 306.011Z" fill="#CCE4FF"/>
<path d="M386.082 306.011C385.065 311.737 387.928 316.381 392.471 316.381C397.013 316.381 401.523 311.737 402.54 306.011C403.557 300.284 400.693 295.641 396.151 295.641C391.609 295.641 387.099 300.284 386.082 306.011Z" fill="white"/>
<path d="M248.333 360.21C251.249 343.763 264.189 330.429 277.239 330.429C279.267 330.429 281.159 330.785 282.928 331.389L296.178 337.958L302.029 342.42L296.152 353.445C296.165 355.624 296.003 357.881 295.589 360.21C293.586 371.507 286.854 381.332 278.612 386.378L273.824 395.367L262.478 389.478C259.802 388.83 257.418 387.558 255.37 385.788L255.351 385.775C249.37 380.567 246.409 371.086 248.34 360.21H248.333Z" fill="#11151A"/>
<path d="M258.124 366.157C255.098 382.604 263.625 395.938 277.18 395.938C290.735 395.938 304.174 382.604 307.2 366.157C310.226 349.71 301.698 336.376 288.143 336.376C274.588 336.376 261.149 349.71 258.124 366.157Z" fill="#647B96"/>
<path d="M259.963 366.157C257.048 382.604 265.264 395.938 278.314 395.938C291.363 395.938 304.303 382.604 307.219 366.157C310.135 349.71 301.919 336.376 288.869 336.376C275.819 336.376 262.879 349.71 259.963 366.157Z" fill="#11151A"/>
<path d="M265.601 366.156C263.378 378.68 269.637 388.829 279.571 388.829C289.504 388.829 299.359 378.68 301.575 366.156C303.798 353.633 297.538 343.483 287.605 343.483C277.672 343.483 267.817 353.633 265.594 366.156H265.601Z" fill="#CCE4FF"/>
<path d="M275.366 366.156C274.349 371.883 277.213 376.526 281.755 376.526C286.297 376.526 290.807 371.883 291.824 366.156C292.841 360.43 289.977 355.786 285.435 355.786C280.893 355.786 276.383 360.43 275.366 366.156Z" fill="white"/>
<path d="M240.162 220.281V384.095L436.401 271.172V112.929L240.162 220.281Z" fill="#CCDEE0"/>
<path d="M106.69 151.102L240.162 220.281V384.095L106.69 313.32V151.102Z" fill="#A9C6C9"/>
<path d="M436.401 112.928L297.363 35L106.689 151.101L240.162 220.281L436.401 112.928Z" fill="#EBF4F5"/>
<path d="M240.162 384.095L234.848 217.525L106.689 151.102L240.162 207.479L436.401 112.929L247.995 223.595L240.162 384.095Z" fill="#F5FBFF"/>
<path d="M241.147 226.435C235.135 226.435 230.261 220.912 230.261 214.1C230.261 207.287 235.135 201.765 241.147 201.765C247.159 201.765 252.032 207.287 252.032 214.1C252.032 220.912 247.159 226.435 241.147 226.435Z" fill="white"/>
<path d="M131.358 301.88L122.299 421.088L211.529 370.307V258.597L131.358 301.88Z" fill="#17ADEB"/>
<path d="M148.982 405.899C148.982 405.899 148.956 405.853 148.943 405.834C147.504 403.032 147.394 399.744 147.53 396.592C147.887 388.427 149.798 380.197 154.062 373.232C158.325 366.26 165.109 360.644 173.06 358.769C180.816 356.94 189.155 358.782 196.049 362.784C200.429 365.326 204.213 368.744 207.576 372.551L148.982 405.892V405.899Z" fill="#118DBF"/>
<path d="M171.336 290.81L171.446 329.508L141.511 344.995V307.036L171.336 290.81Z" fill="white"/>
<path d="M47.8619 372.791V258.597L131.357 301.88L47.8619 372.791Z" fill="#BD230D"/>
<path d="M211.529 258.597L120.848 209.853L47.8623 258.597L131.358 301.88L211.529 258.597Z" fill="#63CDF2"/>
<path d="M47.8614 326.881L34.9995 340.766V373.913L122.299 421.087L120.821 384.296L129.821 369.016L47.8614 326.881Z" fill="#0F78A3"/>
<path d="M120.977 388.103L34.9995 342.582V340.766L47.8614 258.597L131.117 301.141L120.977 388.103Z" fill="#139BD2"/>
<path d="M138.277 412.028L122.299 421.088L120.847 387.688L131.357 299.117L138.277 412.028Z" fill="#17ADEB"/>
<path d="M96.2443 396.826C97.0542 402.883 101.758 407.799 106.754 407.799C111.75 407.799 115.152 402.883 114.342 396.826C113.532 390.762 108.828 385.853 103.832 385.853C98.8361 385.853 95.4344 390.768 96.2443 396.826Z" fill="#11151A"/>
<path d="M98.7328 396.825C99.2771 400.931 102.471 404.264 105.854 404.264C109.236 404.264 111.543 400.937 110.999 396.825C110.454 392.72 107.26 389.387 103.878 389.387C100.495 389.387 98.1885 392.714 98.7328 396.825Z" fill="#CCE4FF"/>
<path d="M99.2309 395.587C99.2309 397.351 100.494 398.778 102.05 398.778C103.605 398.778 104.868 397.351 104.868 395.587C104.868 393.823 103.605 392.396 102.05 392.396C100.494 392.396 99.2309 393.823 99.2309 395.587Z" fill="white"/>
<path d="M37.9416 364.704C38.7515 370.761 43.4557 375.677 48.4514 375.677C53.4472 375.677 56.8489 370.761 56.0389 364.704C55.229 358.64 50.5249 353.73 45.5291 353.73C40.5334 353.73 37.1316 358.646 37.9416 364.704Z" fill="#11151A"/>
<path d="M40.4301 364.703C40.9743 368.809 44.1688 372.142 47.5511 372.142C50.9334 372.142 53.2401 368.815 52.6958 364.703C52.1516 360.598 48.9571 357.265 45.5748 357.265C42.1925 357.265 39.8858 360.592 40.4301 364.703Z" fill="#CCE4FF"/>
<path d="M43.7474 366.662C42.1943 366.662 40.9353 365.233 40.9353 363.471C40.9353 361.709 42.1943 360.28 43.7474 360.28C45.3005 360.28 46.5596 361.709 46.5596 363.471C46.5596 365.233 45.3005 366.662 43.7474 366.662Z" fill="white"/>
<path d="M92.9014 384.581L59.901 367.181V377.551L92.9014 395.587V384.581Z" fill="#11151A"/>
<path d="M143.332 321.939H143.585C147.092 321.939 149.935 324.785 149.935 328.295V340.767C149.935 344.277 147.092 347.122 143.585 347.122H143.332C139.825 347.122 136.982 344.277 136.982 340.767V328.295C136.982 324.785 139.825 321.939 143.332 321.939Z" fill="#0074A3"/>
<path d="M139.586 334.533L129.627 341.933V348.529L142.554 338.496L139.586 334.533Z" fill="#0074A3"/>
<path d="M124.509 307.035L52.7737 271.087L40.9291 338.639L116.059 375.677L124.509 307.035Z" fill="white"/>
<path d="M47.8623 258.597L127.839 298.008L124.509 356.811L134.3 301.88L211.529 258.597L131.973 295.44L47.8623 258.597Z" fill="#B8E5F5"/>
<path d="M127.84 298.008C127.84 300.595 129.693 302.69 131.973 302.69C134.254 302.69 136.107 300.595 136.107 298.008C136.107 295.42 134.254 293.325 131.973 293.325C129.693 293.325 127.84 295.42 127.84 298.008Z" fill="white"/>
<path d="M148.094 401.288C151.01 384.841 163.949 371.507 176.999 371.507C179.027 371.507 180.919 371.864 182.688 372.467L195.939 379.036L201.79 383.498L195.913 394.523C195.926 396.703 195.764 398.959 195.349 401.288C193.347 412.585 186.615 422.411 178.373 427.456L173.585 436.445L162.239 430.556C159.563 429.908 157.178 428.637 155.131 426.866L155.111 426.853C149.131 421.645 146.17 412.157 148.1 401.288H148.094Z" fill="#11151A"/>
<path d="M157.878 407.235C154.852 423.682 163.38 437.016 176.935 437.016C190.49 437.016 203.929 423.682 206.955 407.235C209.98 390.788 201.453 377.454 187.898 377.454C174.343 377.454 160.904 390.788 157.878 407.235Z" fill="#647B96"/>
<path d="M159.718 407.235C156.803 423.682 165.019 437.016 178.068 437.016C191.118 437.016 204.058 423.682 206.974 407.235C209.89 390.788 201.673 377.454 188.624 377.454C175.574 377.454 162.634 390.788 159.718 407.235Z" fill="#11151A"/>
<path d="M165.356 407.234C163.133 419.758 169.392 429.907 179.326 429.907C189.259 429.907 199.114 419.758 201.33 407.234C203.553 394.711 197.293 384.562 187.36 384.562C177.427 384.562 167.572 394.711 165.356 407.234Z" fill="#CCE4FF"/>
<path d="M175.121 407.234C174.104 412.961 176.968 417.605 181.51 417.605C186.052 417.605 190.562 412.961 191.579 407.234C192.596 401.508 189.732 396.864 185.19 396.864C180.648 396.864 176.138 401.508 175.121 407.234Z" fill="white"/>
<path d="M207.577 396.631C210.363 390.178 209.488 382.272 205.348 376.591C202.937 373.284 199.594 370.787 196.166 368.549C191.825 365.722 187.192 363.212 182.164 361.98C170.669 359.158 158.002 363.64 149.863 372.24C141.725 380.839 137.947 393.064 138.472 404.893C138.556 406.8 138.757 408.746 139.587 410.458C141.764 414.946 147.317 416.418 152.209 417.391C153.272 407.092 157.049 397.085 163.056 388.654C165.168 385.69 167.578 382.895 170.507 380.729C179.695 373.919 193.743 374.808 202.011 382.707C203.229 383.874 204.337 385.178 205.121 386.676C206.229 388.797 206.644 391.209 207.039 393.57L207.577 396.625V396.631Z" fill="#17ADEB"/>
<path d="M182.157 361.98C187.192 363.212 191.818 365.722 196.159 368.55C196.237 368.602 196.315 368.66 196.393 368.712C187.477 365.592 177.466 365.184 169.431 369.912C166.347 371.727 163.703 374.198 161.15 376.708C155.96 381.793 150.906 387.234 147.848 393.83C145.794 398.266 144.699 403.091 144.012 407.929C143.727 409.913 143.37 412.047 142.113 413.545C141.077 412.709 140.189 411.716 139.586 410.465C138.757 408.753 138.556 406.8 138.472 404.9C137.947 393.064 141.725 380.846 149.863 372.246C158.001 363.647 170.669 359.165 182.163 361.986L182.157 361.98Z" fill="#63CDF2"/>
<path d="M149.863 372.24C150.938 371.105 152.098 370.054 153.316 369.068C157.146 375.074 162.621 380.333 169.438 381.702C167.014 383.719 164.889 386.086 163.055 388.661C162.394 389.588 161.863 390.606 161.254 391.566C159.077 388.44 156.569 385.541 153.459 383.369C150.738 381.468 147.504 380.23 144.226 379.97C145.794 377.182 147.647 374.568 149.856 372.233L149.863 372.24Z" fill="#63CDF2"/>
</g>
</g>
<defs>
<clipPath id="clip0_219_1884">
<rect width="404" height="404" fill="white" transform="matrix(-1 0 0 1 439 35)"/>
</clipPath>
</defs>
</svg>
