<svg width="40" height="11" viewBox="0 0 40 11" fill="none" xmlns="http://www.w3.org/2000/svg">
<g clip-path="url(#clip0_182_220)">
<path d="M5.08737 10.6911C6.25141 10.6911 7.18556 10.1135 7.88973 8.78499L9.45617 5.83919V8.33733C9.45617 9.81023 10.4047 10.6911 11.8705 10.6911C13.0202 10.6911 13.8681 10.1857 14.6872 8.78499L18.2944 2.66234C19.0848 1.31941 18.5243 0.308594 16.7854 0.308594C15.8513 0.308594 15.2477 0.611838 14.7016 1.63709L12.2155 6.33017V2.15694C12.2155 0.915083 11.6262 0.308594 10.534 0.308594C9.67175 0.308594 8.98194 0.684041 8.45019 1.72373L6.10771 6.33017V2.20026C6.10771 0.87176 5.5616 0.308594 4.23945 0.308594H1.53771C0.51736 0.308594 0 0.785122 0 1.66597C0 2.54682 0.546101 3.05223 1.53771 3.05223H2.64428V8.32291C2.64428 9.81023 3.63589 10.6911 5.08737 10.6911Z" fill="white"/>
<path fill-rule="evenodd" clip-rule="evenodd" d="M23.5693 0.308594C20.6233 0.308594 18.367 2.51794 18.367 5.50708C18.367 8.4962 20.6376 10.6911 23.5693 10.6911C26.501 10.6911 28.7429 8.48173 28.7573 5.50708C28.7573 2.51794 26.501 0.308594 23.5693 0.308594ZM23.5693 7.49981C22.4628 7.49981 21.7011 6.66229 21.7011 5.50708C21.7011 4.35186 22.4628 3.49988 23.5693 3.49988C24.6759 3.49988 25.4376 4.35186 25.4376 5.50708C25.4376 6.66229 24.6903 7.49981 23.5693 7.49981Z" fill="white"/>
<path fill-rule="evenodd" clip-rule="evenodd" d="M29.4892 5.50708C29.4892 2.51794 31.7454 0.308594 34.6772 0.308594C37.6089 0.308594 39.8651 2.53238 39.8651 5.50708C39.8651 8.48173 37.6089 10.6911 34.6772 10.6911C31.7454 10.6911 29.4892 8.4962 29.4892 5.50708ZM32.8233 5.50708C32.8233 6.66229 33.5562 7.49981 34.6772 7.49981C35.7837 7.49981 36.5454 6.66229 36.5454 5.50708C36.5454 4.35186 35.7837 3.49988 34.6772 3.49988C33.5706 3.49988 32.8233 4.35186 32.8233 5.50708Z" fill="white"/>
</g>
<defs>
<clipPath id="clip0_182_220">
<rect width="40" height="11" fill="white"/>
</clipPath>
</defs>
</svg>
