<svg xmlns="http://www.w3.org/2000/svg" width="53" height="53" viewBox="0 0 53 53" fill="none">
<path d="M15.0207 10.1036C13.5107 10.784 12.6262 11.5133 10.6759 13.6356C7.12896 17.4954 5.44922 22.0173 5.44922 27.6726C5.44922 39.6454 15.1551 49.3513 27.128 49.3513C39.1008 49.3513 48.8067 39.6454 48.8067 27.6726C48.8067 17.7 42.0729 9.30015 32.9042 6.77185" stroke="black" stroke-width="1.6" stroke-linecap="round"></path>
<path d="M27.6535 24.6504C26.6756 23.7145 26.7172 20.4389 25.3983 20.4815C24.9523 20.4815 25.0156 23.9258 24.4506 23.9446C23.8856 23.9635 23.1511 23.2854 22.5295 23.0594C21.908 22.8334 22.1529 20.8558 20.7591 20.8935C19.3654 20.9312 19.4219 22.5509 18.9699 23.4361C18.5179 24.3213 17.5009 22.08 16.7287 22.1177C15.9565 22.1554 15.2596 24.5473 15.0336 25.0558C14.8076 25.5643 12.8301 26.0917 12.0014 27.3348C11.1727 28.5778 12.3217 30.9132 12.6607 31.7796C12.9997 32.646 12.3405 33.6442 13.8096 34.341C15.2786 35.0379 16.9168 33.663 18.2163 33.0226C19.5159 32.3823 20.8347 32.9661 21.2114 33.8137C21.5881 34.6612 22.2095 33.4562 23.3584 34.5294C24.5073 35.6025 26.1835 36.1303 27.2759 36.1114C28.3683 36.0926 29.1845 34.307 29.9077 33.4562C30.6308 32.6054 31.5667 30.2657 31.4391 29.0321C31.3115 27.7984 28.6315 25.5863 27.6535 24.6504Z" fill="black"></path>
<path d="M27.9498 36.9116C27.396 37.0961 26.3634 36.9116 25.5415 36.9116C25.3566 37.4651 26.1669 38.5413 26.9355 38.5413C27.7042 38.5413 28.5037 36.7272 27.9498 36.9116Z" fill="black"></path>
<path d="M34.43 42.0525C34.1898 42.0713 34.2817 41.79 33.9559 41.7028C33.8204 41.9159 33.5401 42.5487 33.8447 42.6302C34.1494 42.7117 34.6703 42.0337 34.43 42.0525Z" fill="black"></path>
<path d="M41.6974 31.9399C40.8919 31.432 41.3551 29.3095 40.5674 29.362C40.5674 29.0818 40.2259 27.4214 39.7355 27.7892C39.2451 28.157 40.173 31.9399 39.8932 32.2902C39.6718 32.5673 38.8771 32.2552 38.667 32.5705C38.4568 32.8857 39.3855 33.1134 39.0703 33.8139C38.7552 34.5145 38.1721 34.8489 38.7805 35.5136C39.1998 35.9717 40.5239 34.3218 41.0318 34.0942C41.5397 33.8665 42.2052 33.9891 42.6606 33.5162C43.116 33.0433 42.503 32.4479 41.6974 31.9399Z" fill="black"></path>
<path d="M38.6736 36.7795C38.4043 36.7571 37.7784 36.5439 37.4287 35.8706C37.4287 35.8145 37.3679 35.6888 37.1247 35.6349C36.8208 35.5676 36.1148 37.2508 35.6098 37.7221C35.1048 38.1934 33.7586 38.9004 33.3546 39.8094C32.9506 40.7183 33.7254 40.9876 34.5333 41.3579C35.3413 41.7283 36.0143 40.8866 36.4519 40.449C36.8896 40.0113 38.2025 38.1598 38.6736 37.8905C39.0504 37.675 38.8306 37.0601 38.6736 36.7795Z" fill="black"></path>
<path d="M16.4613 16.9963C11.9613 20.4963 9.32817 20.1424 6.46191 20.4963C6.98701 16.8956 6.06952 11.2414 10.4613 7.5243C14.8531 3.80724 24.3261 4.23565 28.1705 7.52432C21.4613 9.49634 20.9613 13.4963 16.4613 16.9963Z" stroke="black" stroke-width="1.6"></path>
<path d="M8.46191 9.99634C7.68112 7.8942 7.21439 6.12245 4.45383 5.58362C4.88807 8.30049 4.8706 10.8673 4.45316 13.2097C4.03573 15.552 3.84028 18.7271 6.13153 20.8374" stroke="black" stroke-width="1.6"></path>
</svg>
