<svg xmlns="http://www.w3.org/2000/svg" width="37" height="43" fill="none">
    <path d="M11.723 22.698s2.598-1.958 5.088-4.464c2.49-2.507 3.585-9.435 7.525-8.472 3.94.963-.45 11.455-.45 11.455h9.188c1.288 0 2.34 1.004 2.34 2.257v.352c0 1.243-1.041 2.258-2.34 2.258h-1.61l1.631-.103c1.342-.083 2.49.953 2.49 2.258v1.077c0 1.201-.965 2.185-2.21 2.258l-2.416.134h1.75c1.288 0 2.34 1.005 2.34 2.258v.56c0 1.242-1.041 2.257-2.34 2.257h-.677c1.289 0 2.34 1.005 2.34 2.258 0 1.243-1.04 2.258-2.34 2.258H21.395c-5.883 0-9.672-3.46-9.672-3.46v.021" stroke="#000" stroke-width="1.8" stroke-linecap="round" stroke-linejoin="round"></path>
    <path d="M11.724 39.734H1.75S1 36.39 1 30.714c0-5.676.751-9.022.751-9.022h9.973s-.494 2.89-.494 8.752.494 9.29.494 9.29ZM22.93 1.528v3.915M31.206 4.686 28.34 7.462M15.019 4.686l2.855 2.776M15.019 12.33h-3.296M33.826 12.33H30.53" stroke="#000" stroke-width="1.8" stroke-linecap="round" stroke-linejoin="round"></path>
</svg>
