<svg width="236" height="59" viewBox="0 0 236 59" fill="none" xmlns="http://www.w3.org/2000/svg">
<g clip-path="url(#clip0_2186_3643)">
<path d="M98.1602 47.25C100.68 47.2501 101.65 48.7905 101.89 49.9805L100.269 50.4873C100.157 49.8273 99.6076 48.8496 98.1797 48.8496C97.1 48.8497 96.3401 49.5699 96.3398 50.3896C96.3398 51.0696 96.7599 51.5797 97.5898 51.7598L99.1299 52.0801C101.01 52.4601 102.02 53.6504 102.02 55.1504C102.019 56.8102 100.68 58.3895 98.2402 58.3896C95.5305 58.3896 94.2805 56.6403 94.1104 55.1104L95.7998 54.6299C95.9098 55.7399 96.7002 56.7695 98.2402 56.7695C99.52 56.7694 100.18 56.12 100.18 55.29C100.18 54.6 99.67 54.0398 98.75 53.8398L97.2402 53.5195C95.6102 53.1895 94.5303 52.1195 94.5303 50.5195C94.5306 48.7297 96.1703 47.25 98.1602 47.25ZM112.94 47.25C115.46 47.2502 116.43 48.7905 116.67 49.9805L115.049 50.4873C114.938 49.8273 114.388 48.8496 112.96 48.8496C111.88 48.8496 111.12 49.5698 111.12 50.3896C111.12 51.0696 111.54 51.5798 112.37 51.7598L113.91 52.0801C115.79 52.4601 116.8 53.6504 116.8 55.1504C116.8 56.8102 115.459 58.3896 113.02 58.3896C110.31 58.3895 109.06 56.6402 108.89 55.1104L110.58 54.6299C110.69 55.7398 111.48 56.7694 113.02 56.7695C114.3 56.7695 114.96 56.12 114.96 55.29C114.96 54.6001 114.45 54.0399 113.53 53.8398L112.02 53.5195C110.39 53.1894 109.31 52.1194 109.31 50.5195C109.31 48.7297 110.951 47.25 112.94 47.25ZM148.09 47.25C150.89 47.25 153.53 49.3098 153.53 52.8096C153.53 56.3096 150.89 58.3799 148.09 58.3799C145.29 58.3798 142.67 56.3195 142.67 52.8096C142.67 49.2999 145.29 47.25 148.09 47.25ZM169.33 54.3203C169.33 55.83 170.16 56.6503 171.51 56.6504C172.86 56.6504 173.69 55.8201 173.69 54.3203V47.4697H175.5V54.4297C175.5 57.0097 173.75 58.3799 171.51 58.3799C169.27 58.3798 167.53 57.0096 167.53 54.4297H167.54V47.4697H169.33V54.3203ZM183.36 47.25C186.13 47.2502 187.68 48.8501 188.16 50.71L186.46 51.2803C186.14 49.9904 185.15 48.9504 183.36 48.9502C181.57 48.9502 179.84 50.2303 179.84 52.8203C179.84 55.4101 181.56 56.6504 183.38 56.6504C185.2 56.6504 186.2 55.5098 186.56 54.2998L188.22 54.8398C187.74 56.6498 186.11 58.3799 183.39 58.3799C180.51 58.3797 178 56.3 178 52.8203H177.979C177.979 49.3403 180.59 47.25 183.36 47.25ZM56.3896 47.2402C58.9796 47.2402 60.64 48.7302 61.21 50.4902L59.5098 51.1396C59.1497 49.9298 58.0895 48.9102 56.3896 48.9102C54.6898 48.9103 52.8497 50.1401 52.8496 52.7998C52.8496 55.4598 54.5401 56.7197 56.3701 56.7197C58.5199 56.7196 59.3396 55.2401 59.4297 54.3301H55.9102V52.75H61.1396V58.1602H59.6797V58.1504L59.54 56.79C59.07 57.57 57.9695 58.3701 56.2695 58.3701C53.4797 58.3699 51.0098 56.3196 51.0098 52.7998C51.0099 49.28 53.6198 47.2404 56.3896 47.2402ZM137.46 47.4805C139.52 47.4805 140.8 48.9099 140.8 50.7197C140.8 52.2397 139.88 53.3998 138.39 53.7598L140.8 58.1602H138.75L136.51 53.9404H135.18V58.1602H133.36V47.4805H137.46ZM198.33 49.1797H194.85V58.1602H193.04V49.1797H189.58V47.4805H198.33V49.1797ZM45.0996 58.1504H43.1299L42.1201 55.4697H37.5898L36.5996 58.1504H34.6904L38.8496 47.4697H40.9404L45.0996 58.1504ZM70.6602 49.1602H65.8701V51.9902H70.21V53.6299H65.8701V56.46H70.6602V58.1504H64.0596V47.4697H70.6602V49.1602ZM80.5996 55.0498V47.4697H82.4102V58.1504H80.5303L75.2598 50.0596V58.1504H73.4502V47.4697H75.75L80.5996 55.0498ZM92.1904 49.1602H87.4004V51.9902H91.7402V53.6299H87.4004V56.46H92.1904V58.1504H85.5898V47.4697H92.1904V49.1602ZM106.45 58.1504H104.61V47.4697H106.45V58.1504ZM127.78 47.4697C129.83 47.4699 131.18 48.86 131.18 50.7197C131.18 52.5796 129.82 53.9696 127.78 53.9697H125.63V58.1504H123.82V47.4697H127.78ZM159.88 47.4697C162.79 47.4697 165.08 49.4001 165.08 52.8301C165.08 56.26 162.76 58.1503 159.87 58.1504H156.1V47.4697H159.88ZM148.09 48.9404C146.29 48.9405 144.52 50.22 144.52 52.7998C144.52 55.3798 146.3 56.6601 148.09 56.6602C149.9 56.6602 151.67 55.3798 151.67 52.7998C151.67 50.2199 149.89 48.9404 148.09 48.9404ZM157.91 56.5H159.8C161.65 56.5 163.19 55.3098 163.19 52.8398C163.19 50.3701 161.67 49.1398 159.82 49.1396H157.91V56.5ZM38.21 53.7998H41.4697L39.8398 49.4297L38.21 53.7998ZM125.64 52.3799H127.52C128.669 52.3799 129.36 51.7501 129.36 50.7402C129.36 49.7302 128.67 49.0703 127.52 49.0703H125.64V52.3799ZM135.18 52.3398H137.12C138.23 52.3398 138.96 51.6899 138.96 50.71C138.96 49.73 138.24 49.0704 137.12 49.0703H135.18V52.3398ZM218.25 12.5703V16.71H214.4C214.421 16.7574 220.981 31.5765 220.94 31.6201L227.59 16.71H223.56V12.5703H235.7V16.8799H232.43L219.52 44.2197C218.88 45.4996 218.24 46.6097 217.54 47.5996L217.55 47.5898C215.68 50.0298 213.52 51.37 210.95 51.3701C208.14 51.3701 206.16 49.8002 206.16 47.8203C206.16 46.0203 207.44 44.9697 208.9 44.9697C210.36 44.9699 211.29 46.0204 211.64 47.0703C212.46 46.7703 213.25 46.9599 214.18 45.6201C214.639 44.861 218.531 36.3496 218.54 36.3301L209.26 16.8799H205.99V12.5703H218.25ZM100.27 50.4902H100.26L100.269 50.4873L100.27 50.4902ZM115.05 50.4902H115.04L115.049 50.4873L115.05 50.4902ZM90.8096 12.5996H98.46V16.9102H90.8096V30.4805C90.8096 31.2902 90.9302 31.8805 91.1602 32.4004C91.6302 33.2101 92.5 33.62 94.0195 33.6201C95.5394 33.6201 97.3496 32.9197 98.8096 32.2197L98.2803 36.7002C96.8203 37.4502 94.9601 38.1504 92.6201 38.1504V38.1699C89.8202 38.1699 87.6598 37.1802 86.5498 35.0303C86.0798 34.0404 85.7901 32.7602 85.79 31.3604V16.9102H81.0596V12.5996H85.79V6.83984L90.8096 4.7998V12.5996ZM195.35 12.5996H203V16.9102H195.35V30.4805C195.35 31.2902 195.47 31.8805 195.7 32.4004C196.17 33.2101 197.04 33.62 198.56 33.6201C200.079 33.6201 201.89 32.9197 203.35 32.2197L202.83 36.7002C201.37 37.4502 199.5 38.1504 197.17 38.1504L197.16 38.1699C194.36 38.1699 192.2 37.1802 191.09 35.0303C190.62 34.0404 190.33 32.7602 190.33 31.3604V16.9102H185.6V12.5996H190.33V6.83984L195.35 4.7998V12.5996ZM12.4805 12.1104C20.2501 12.1106 24.33 17.64 24.3301 24.0498C24.3301 24.9798 24.2196 25.9805 24.0996 26.7305H5.25C5.96016 31.5102 9.46051 33.8398 14.3604 33.8398C17.5702 33.8398 20.3202 32.8501 23.29 31.1602L22.8799 35.7598C20.2499 37.3898 17.0396 38.1504 13.5996 38.1504C5.48982 38.1502 0 32.9096 0 25.2197C0.000121481 18.1698 4.71057 12.1104 12.4805 12.1104ZM40 12.1201C46.25 12.1201 50.7998 16.2 50.7998 20.04C50.7998 22.2499 49.2801 23.7694 47.2402 23.7695C45.6103 23.7695 44.0899 22.4801 44.0898 20.6201C44.0898 19.8001 44.4997 18.9895 45.1396 18.5195C44.5493 17.3597 42.4496 16.25 40 16.25C36.61 16.25 32.4697 19.1002 32.4697 25.1602C32.4698 30.3401 36.26 33.8398 41.46 33.8398C44.3798 33.8398 47.0098 32.97 50.0996 31.1602L49.6299 35.7598C47.0599 37.3897 44.0802 38.1504 40.9902 38.1504C33.1702 38.1504 27.3896 32.7998 27.3896 25.0498C27.3898 18.2899 32.8201 12.1201 40 12.1201ZM66.2803 12.1104C74.2701 12.1105 79.4102 18.1702 79.4102 25.1602C79.4101 32.15 74.2201 38.1503 66.2803 38.1504C58.2303 38.1504 53.1505 32.2101 53.1504 25.1602C53.1504 18.1102 58.2903 12.1104 66.2803 12.1104ZM155.96 12.1201C162.21 12.1201 166.76 16.2 166.76 20.04C166.76 22.2499 165.24 23.7694 163.2 23.7695C161.57 23.7695 160.05 22.4801 160.05 20.6201C160.05 19.8001 160.46 18.9895 161.1 18.5195C160.509 17.3597 158.41 16.25 155.96 16.25C152.57 16.25 148.43 19.1002 148.43 25.1602C148.43 30.34 152.22 33.8398 157.42 33.8398C160.34 33.8398 162.97 32.97 166.06 31.1602L165.59 35.7598C163.02 37.3897 160.04 38.1504 156.95 38.1504C149.13 38.1504 143.35 32.7998 143.35 25.0498C143.35 18.2899 148.78 12.1201 155.96 12.1201ZM119.98 12.0996C122.72 12.0998 124.12 13.7898 124.12 15.7695C124.12 17.5795 122.66 19.1503 120.91 19.1504C119.46 19.1804 118.15 18.33 117.58 17C115.71 17.59 113.56 19.6803 112.33 22.0703V33.4902H116.94V37.6797H103.46V33.4902H107.37V16.8896H103.46V12.5801H112.16V18.29C114.14 14.8601 117.06 12.1201 119.98 12.1201V12.0996ZM136.73 33.4902H140.76V37.6797H127.63V33.4902H131.71V16.8896H127.63V12.5801H136.73V33.4902ZM180.56 33.4902H184.59V37.6797H171.45V33.4902H175.53V16.8896H171.45V12.5801H180.56V33.4902ZM66.2803 16.3701C61.5503 16.3701 58.2803 20.0302 58.2803 25.1602C58.2803 30.2901 61.5503 33.9004 66.2803 33.9004C70.9501 33.9002 74.2197 30.28 74.2197 25.1602C74.2197 20.0403 71.0101 16.3703 66.2803 16.3701ZM12.3701 16.25C8.99017 16.25 5.89007 18.4699 5.25 23.0098H19.3096C19.0795 18.9899 16.63 16.2501 12.3701 16.25ZM133.69 0C135.62 0.000231681 137.31 1.5705 137.31 3.61035C137.309 5.65019 135.56 7.28027 133.63 7.28027C131.64 7.2802 130.01 5.59016 130.01 3.61035C130.01 1.63035 131.76 0 133.69 0ZM177.53 0C179.46 0.000148943 181.15 1.57045 181.15 3.61035C181.15 5.65019 179.4 7.28027 177.47 7.28027C175.48 7.28012 173.85 5.59011 173.85 3.61035C173.85 1.63035 175.6 0 177.53 0Z" fill="#333D47"></path>
</g>
<defs>
<clipPath id="clip0_2186_3643">
<rect width="235.7" height="58.38" fill="white"></rect>
</clipPath>
</defs>
</svg>
