<svg xmlns="http://www.w3.org/2000/svg" width="54" height="53" viewBox="0 0 54 53" fill="none">
<g clip-path="url(#clip0_1740_718)">
<path d="M21.5232 40.0557L21.252 46.2673L6.95129 45.6857L3.3698 39.9897L8.91304 30.3928L6.13165 28.8737L15.6241 25.1022L16.5021 34.9957L14.1349 33.4327L10.6432 39.6479L21.5232 40.0557Z" stroke="black" stroke-width="1.5" stroke-linejoin="round"></path>
<path d="M6.94629 45.6323L10.9138 39.1912" stroke="black" stroke-width="1.5" stroke-linejoin="round"></path>
<path d="M38.9471 29.1209L44.3778 26.0936L51.3838 38.5742L48.413 44.6111L37.3347 44.9255L37.5002 48.0904L29.31 41.9869L37.2727 36.0499L37.1837 38.8852L44.3068 38.598L42.9669 36.2287L41.6269 33.8594L38.9471 29.1209Z" stroke="black" stroke-width="1.5" stroke-linejoin="round"></path>
<path d="M51.3398 38.6057L43.7748 38.6064" stroke="black" stroke-width="1.5" stroke-linejoin="round"></path>
<path d="M21.825 19.5591L16.6136 16.1682L24.3837 4.14843L31.1094 3.95942L36.5563 13.6113L39.2784 11.9882L37.7012 22.08L28.7348 17.8072L31.2841 16.5631L27.7066 10.3968L21.825 19.5591Z" stroke="black" stroke-width="1.5" stroke-linejoin="round"></path>
<path d="M24.4326 4.17188L27.9629 10.8627" stroke="black" stroke-width="1.5" stroke-linejoin="round"></path>
<path d="M31.3009 22.8285L25.7321 21.3625L25.435 22.8285L23.5791 31.8136H25.7321L24.6926 39.0165L33.0094 28.175H29.3708L31.3009 22.8285Z" stroke="black" stroke-width="1.5" stroke-linecap="round" stroke-linejoin="round"></path>
</g>
<defs>
<clipPath id="clip0_1740_718">
<rect width="53" height="53" fill="white" transform="translate(0.745117)"></rect>
</clipPath>
</defs>
</svg>
